<?xml version="1.0" encoding="UTF-8"?>
<!DOCTYPE svg PUBLIC "-//W3C//DTD SVG 1.1//EN" "http://www.w3.org/Graphics/SVG/1.1/DTD/svg11.dtd">
<svg xmlns="http://www.w3.org/2000/svg" version="1.1" width="318px" height="241px" style="shape-rendering:geometricPrecision; text-rendering:geometricPrecision; image-rendering:optimizeQuality; fill-rule:evenodd; clip-rule:evenodd" xmlns:xlink="http://www.w3.org/1999/xlink">
<g><path style="opacity:1" fill="#fcfcfc" d="M -0.5,-0.5 C 47.5,-0.5 95.5,-0.5 143.5,-0.5C 142.032,0.779138 141.365,2.4458 141.5,4.5C 136.622,4.53488 135.289,6.86821 137.5,11.5C 140.848,12.9972 143.514,12.3306 145.5,9.5C 145.126,0.524309 146.126,0.190976 148.5,8.5C 148.285,10.1788 148.952,11.1788 150.5,11.5C 151.391,10.8902 152.391,10.5569 153.5,10.5C 156.698,11.0356 159.365,10.369 161.5,8.5C 162.222,8.08247 162.722,7.4158 163,6.5C 163.333,8.5 163.667,10.5 164,12.5C 164.995,11.9341 165.828,11.2674 166.5,10.5C 166.5,8.83333 166.5,7.16667 166.5,5.5C 167.833,5.5 169.167,5.5 170.5,5.5C 170.5,7.5 170.5,9.5 170.5,11.5C 171.5,11.5 172.5,11.5 173.5,11.5C 175.317,12.2192 175.984,13.2192 175.5,14.5C 177.026,14.0057 178.359,13.339 179.5,12.5C 180.167,12.5 180.833,12.5 181.5,12.5C 183.496,14.3332 185.829,14.8332 188.5,14C 189.451,13.2825 189.617,12.4491 189,11.5C 187.59,10.2125 186.09,9.04584 184.5,8C 186.367,7.28885 187.867,7.78885 189,9.5C 189.464,8.90558 189.631,8.23891 189.5,7.5C 189.611,6.88258 189.944,6.38258 190.5,6C 187.629,5.88226 184.962,5.21559 182.5,4C 183.167,3.66667 183.833,3.33333 184.5,3C 183.027,2.29044 182.36,1.12377 182.5,-0.5C 227.5,-0.5 272.5,-0.5 317.5,-0.5C 317.5,79.8333 317.5,160.167 317.5,240.5C 315.833,240.5 314.167,240.5 312.5,240.5C 312.5,232.167 312.5,223.833 312.5,215.5C 307.637,215.181 302.97,215.514 298.5,216.5C 298.5,224.167 298.5,231.833 298.5,239.5C 298.5,239.833 298.5,240.167 298.5,240.5C 289.5,240.5 280.5,240.5 271.5,240.5C 274.544,239.483 277.544,238.149 280.5,236.5C 284.438,236.157 285.438,234.157 283.5,230.5C 279.555,229.509 275.555,229.176 271.5,229.5C 271.5,228.5 271.5,227.5 271.5,226.5C 275.209,224.483 279.209,223.483 283.5,223.5C 283.817,220.454 282.484,218.787 279.5,218.5C 279.167,218.5 278.833,218.5 278.5,218.5C 279.768,217.213 279.435,216.213 277.5,215.5C 273.025,214.957 268.692,213.957 264.5,212.5C 260.221,213.274 255.887,213.774 251.5,214C 249.881,214.236 248.881,215.069 248.5,216.5C 238.135,221.55 236.802,228.383 244.5,237C 247.096,238.136 249.763,238.969 252.5,239.5C 253.167,239.5 253.5,239.833 253.5,240.5C 244.167,240.5 234.833,240.5 225.5,240.5C 225.826,232.316 225.492,224.316 224.5,216.5C 218.681,215.347 212.681,215.181 206.5,216C 204.565,220.704 202.231,225.204 199.5,229.5C 196.47,225.283 193.804,220.783 191.5,216C 185.509,215.501 179.509,215.334 173.5,215.5C 173.5,223.833 173.5,232.167 173.5,240.5C 168.5,240.5 163.5,240.5 158.5,240.5C 158.5,240.167 158.5,239.833 158.5,239.5C 159.451,238.081 159.784,236.415 159.5,234.5C 151.167,234.5 142.833,234.5 134.5,234.5C 134.5,232.833 134.5,231.167 134.5,229.5C 141.833,229.5 149.167,229.5 156.5,229.5C 156.5,228.167 156.5,226.833 156.5,225.5C 156.389,224.883 156.056,224.383 155.5,224C 148.833,223.667 142.167,223.333 135.5,223C 143.328,221.534 151.328,221.034 159.5,221.5C 159.784,219.585 159.451,217.919 158.5,216.5C 158.158,215.662 157.492,215.328 156.5,215.5C 144.34,214.34 132.007,214.173 119.5,215C 118.517,223.415 118.183,231.915 118.5,240.5C 114.167,240.5 109.833,240.5 105.5,240.5C 105.5,238.833 105.5,237.167 105.5,235.5C 97.4931,235.666 89.4931,235.5 81.5,235C 80.5939,233.301 80.2606,231.467 80.5,229.5C 87.8333,229.5 95.1667,229.5 102.5,229.5C 103.833,227.833 103.833,226.167 102.5,224.5C 104.253,222.777 106.253,221.277 108.5,220C 107.542,218.853 107.875,217.853 109.5,217C 108.643,216.311 107.977,215.478 107.5,214.5C 97.1624,213.238 86.8291,213.238 76.5,214.5C 72.3991,212.726 68.0657,211.726 63.5,211.5C 64.5226,220.941 65.1892,230.608 65.5,240.5C 61.8333,240.5 58.1667,240.5 54.5,240.5C 50.0585,231.792 44.7251,223.626 38.5,216C 33.1357,215.171 27.8023,215.337 22.5,216.5C 17.4744,223.851 12.4744,231.185 7.5,238.5C 6.66175,238.842 6.32842,239.508 6.5,240.5C 4.16667,240.5 1.83333,240.5 -0.5,240.5C -0.5,160.167 -0.5,79.8333 -0.5,-0.5 Z"/></g>
<g><path style="opacity:1" fill="#eaeaea" d="M 143.5,-0.5 C 156.5,-0.5 169.5,-0.5 182.5,-0.5C 182.36,1.12377 183.027,2.29044 184.5,3C 183.833,3.33333 183.167,3.66667 182.5,4C 184.962,5.21559 187.629,5.88226 190.5,6C 189.944,6.38258 189.611,6.88258 189.5,7.5C 187.283,6.63137 184.95,6.29803 182.5,6.5C 182.281,7.67504 182.614,8.67504 183.5,9.5C 188.537,11.6341 188.537,12.4674 183.5,12C 182.178,9.83242 181.511,9.99908 181.5,12.5C 180.833,12.5 180.167,12.5 179.5,12.5C 178.359,13.339 177.026,14.0057 175.5,14.5C 175.984,13.2192 175.317,12.2192 173.5,11.5C 174.519,4.49261 171.519,1.82595 164.5,3.5C 163.99,6.38779 164.656,8.72113 166.5,10.5C 165.828,11.2674 164.995,11.9341 164,12.5C 163.667,10.5 163.333,8.5 163,6.5C 162.722,7.4158 162.222,8.08247 161.5,8.5C 161.714,6.85613 161.38,5.35613 160.5,4C 157.621,3.12638 154.955,3.45971 152.5,5C 153,5.16667 153.5,5.33333 154,5.5C 155.882,4.39396 157.716,4.39396 159.5,5.5C 157.577,6.30779 155.577,6.80779 153.5,7C 152.316,8.14547 152.316,9.31213 153.5,10.5C 152.391,10.5569 151.391,10.8902 150.5,11.5C 150.875,8.60347 150.375,5.93681 149,3.5C 148.506,5.13414 148.34,6.80081 148.5,8.5C 146.126,0.190976 145.126,0.524309 145.5,9.5C 144.834,6.97227 144.168,4.3056 143.5,1.5C 142.824,2.60164 142.158,3.60164 141.5,4.5C 141.365,2.4458 142.032,0.779138 143.5,-0.5 Z"/></g>
<g><path style="opacity:1" fill="#4a4a4a" d="M 147.5,0.5 C 149.337,0.639452 149.67,1.30612 148.5,2.5C 147.702,2.04311 147.369,1.37644 147.5,0.5 Z"/></g>
<g><path style="opacity:1" fill="#2b2b2b" d="M 145.5,9.5 C 143.514,12.3306 140.848,12.9972 137.5,11.5C 135.289,6.86821 136.622,4.53488 141.5,4.5C 142.158,3.60164 142.824,2.60164 143.5,1.5C 144.168,4.3056 144.834,6.97227 145.5,9.5 Z"/></g>
<g><path style="opacity:1" fill="#dedede" d="M 139.5,5.5 C 142.297,5.96659 143.631,7.63326 143.5,10.5C 141.833,10.5 140.167,10.5 138.5,10.5C 138.366,8.70848 138.699,7.04181 139.5,5.5 Z"/></g>
<g><path style="opacity:1" fill="#282828" d="M 161.5,8.5 C 159.365,10.369 156.698,11.0356 153.5,10.5C 152.316,9.31213 152.316,8.14547 153.5,7C 155.577,6.80779 157.577,6.30779 159.5,5.5C 157.716,4.39396 155.882,4.39396 154,5.5C 153.5,5.33333 153,5.16667 152.5,5C 154.955,3.45971 157.621,3.12638 160.5,4C 161.38,5.35613 161.714,6.85613 161.5,8.5 Z"/></g>
<g><path style="opacity:1" fill="#373737" d="M 173.5,11.5 C 172.5,11.5 171.5,11.5 170.5,11.5C 170.5,9.5 170.5,7.5 170.5,5.5C 169.167,5.5 167.833,5.5 166.5,5.5C 166.5,7.16667 166.5,8.83333 166.5,10.5C 164.656,8.72113 163.99,6.38779 164.5,3.5C 171.519,1.82595 174.519,4.49261 173.5,11.5 Z"/></g>
<g><path style="opacity:1" fill="#d7d7d7" d="M 155.5,7.5 C 159.588,7.21844 160.088,7.88511 157,9.5C 155.97,9.16389 155.47,8.49722 155.5,7.5 Z"/></g>
<g><path style="opacity:1" fill="#373737" d="M 189.5,7.5 C 189.631,8.23891 189.464,8.90558 189,9.5C 187.867,7.78885 186.367,7.28885 184.5,8C 186.09,9.04584 187.59,10.2125 189,11.5C 189.617,12.4491 189.451,13.2825 188.5,14C 185.829,14.8332 183.496,14.3332 181.5,12.5C 181.511,9.99908 182.178,9.83242 183.5,12C 188.537,12.4674 188.537,11.6341 183.5,9.5C 182.614,8.67504 182.281,7.67504 182.5,6.5C 184.95,6.29803 187.283,6.63137 189.5,7.5 Z"/></g>
<g><path style="opacity:1" fill="#404040" d="M 150.5,11.5 C 148.952,11.1788 148.285,10.1788 148.5,8.5C 148.34,6.80081 148.506,5.13414 149,3.5C 150.375,5.93681 150.875,8.60347 150.5,11.5 Z"/></g>
<g><path style="opacity:1" fill="#232323" d="M 202.5,19.5 C 202.664,16.8127 202.497,14.146 202,11.5C 201.283,12.0442 200.783,12.7109 200.5,13.5C 200.372,15.0898 199.705,16.4231 198.5,17.5C 198.167,17 197.833,16.5 197.5,16C 198.472,13.8887 199.305,11.7221 200,9.5C 201.356,8.61983 202.856,8.28649 204.5,8.5C 204.187,11.2469 204.52,13.9135 205.5,16.5C 207.5,14.8333 209.5,13.1667 211.5,11.5C 212.308,11.8076 212.975,12.3076 213.5,13C 212.167,15.6667 210.833,18.3333 209.5,21C 208.668,21.6877 208.002,21.521 207.5,20.5C 209.124,19.1311 209.624,17.4645 209,15.5C 207.362,17.7337 205.195,19.067 202.5,19.5 Z"/></g>
<g><path style="opacity:1" fill="#2c2c2c" d="M 131.5,6.5 C 133.229,7.95268 134.229,9.95268 134.5,12.5C 127.793,16.4195 124.793,14.7529 125.5,7.5C 127.217,8.66848 127.884,10.3352 127.5,12.5C 128.833,12.5 130.167,12.5 131.5,12.5C 131.5,10.5 131.5,8.5 131.5,6.5 Z"/></g>
<g><path style="opacity:1" fill="#222222" d="M 179.5,12.5 C 178.5,12.5 177.5,12.5 176.5,12.5C 176.336,9.8127 176.503,7.14603 177,4.5C 177.308,3.69194 177.808,3.02527 178.5,2.5C 179.262,3.62826 179.929,4.79492 180.5,6C 178.176,7.82453 177.843,9.99119 179.5,12.5 Z"/></g>
<g><path style="opacity:1" fill="#292929" d="M 118.5,6.5 C 120.502,9.13095 122.502,11.7976 124.5,14.5C 123.311,15.4287 121.978,15.762 120.5,15.5C 119.539,12.5739 118.873,9.57393 118.5,6.5 Z"/></g>
<g><path style="opacity:1" fill="#272727" d="M 110.5,7.5 C 111.873,7.34332 113.207,7.50999 114.5,8C 112.661,9.13161 110.661,9.96494 108.5,10.5C 107.614,11.325 107.281,12.325 107.5,13.5C 110.16,12.6529 112.826,12.1529 115.5,12C 113.431,13.5234 111.097,14.3568 108.5,14.5C 108.5,15.5 108.5,16.5 108.5,17.5C 111.39,17.722 114.057,17.0553 116.5,15.5C 116.833,15.8333 117.167,16.1667 117.5,16.5C 110.479,21.8227 106.145,20.156 104.5,11.5C 106.397,9.98326 108.397,8.64992 110.5,7.5 Z"/></g>
<g><path style="opacity:1" fill="#8b8b8b" d="M 202.5,19.5 C 201.833,17.5 201.167,15.5 200.5,13.5C 200.783,12.7109 201.283,12.0442 202,11.5C 202.497,14.146 202.664,16.8127 202.5,19.5 Z"/></g>
<g><path style="opacity:1" fill="#222222" d="M 93.5,15.5 C 94.6828,16.5045 96.0161,17.3378 97.5,18C 96.5494,18.7175 96.3828,19.5509 97,20.5C 98.0736,21.6184 99.2402,22.6184 100.5,23.5C 98.7408,24.754 97.2408,24.4206 96,22.5C 94.0972,20.559 93.2639,18.2257 93.5,15.5 Z"/></g>
<g><path style="opacity:1" fill="#2c2c2c" d="M 92.5,24.5 C 93.3764,24.3691 94.0431,24.7025 94.5,25.5C 92.0308,29.8269 88.8642,30.4936 85,27.5C 84.5141,22.0081 87.0141,20.1747 92.5,22C 93.5981,22.7697 93.5981,23.603 92.5,24.5 Z"/></g>
<g><path style="opacity:1" fill="#c8c8c8" d="M 87.5,22.5 C 91.1021,22.678 91.1021,23.678 87.5,25.5C 86.4376,24.5754 86.4376,23.5754 87.5,22.5 Z"/></g>
<g><path style="opacity:1" fill="#262626" d="M 215.5,17.5 C 215.839,19.6638 215.839,21.8305 215.5,24C 216.5,24.6667 217.5,24.6667 218.5,24C 219.155,22.5134 220.155,21.3467 221.5,20.5C 221.145,27.0773 218.311,28.0773 213,23.5C 212.333,22.5 212.333,21.5 213,20.5C 214.045,19.6266 214.878,18.6266 215.5,17.5 Z"/></g>
<g><path style="opacity:1" fill="#323232" d="M 224.5,22.5 C 227.599,22.0923 229.933,23.259 231.5,26C 229.833,25.6667 228.167,25.3333 226.5,25C 228.607,26.2635 229.607,28.0968 229.5,30.5C 227.208,30.7564 225.041,30.4231 223,29.5C 222.333,28.5 222.333,27.5 223,26.5C 224.113,28.3293 225.613,29.1626 227.5,29C 225.081,27.4912 224.081,25.3245 224.5,22.5 Z"/></g>
<g><path style="opacity:1" fill="#d8d8d8" d="M 92.5,24.5 C 91.9283,27.2436 90.2617,28.0769 87.5,27C 89.0779,25.9055 90.7446,25.0722 92.5,24.5 Z"/></g>
<g><path style="opacity:1" fill="#2d2d2d" d="M 234.5,27.5 C 235.376,27.3691 236.043,27.7025 236.5,28.5C 234.585,30.0712 233.585,32.0712 233.5,34.5C 236.529,34.1823 239.195,33.349 241.5,32C 240.167,33.6667 238.833,35.3333 237.5,37C 230.895,35.7646 229.895,32.5979 234.5,27.5 Z"/></g>
<g><path style="opacity:1" fill="#282828" d="M 73.5,30.5 C 74.552,30.3505 75.552,30.5172 76.5,31C 74.9984,31.5831 73.6651,32.4164 72.5,33.5C 72.8333,33.8333 73.1667,34.1667 73.5,34.5C 75.5645,32.7386 77.7311,32.4053 80,33.5C 80.1337,38.0124 77.967,39.5124 73.5,38C 75.4211,37.6397 77.0878,36.8064 78.5,35.5C 78,35.1667 77.5,34.8333 77,34.5C 74.9011,35.2865 72.7345,35.6199 70.5,35.5C 70.31,33.0411 71.31,31.3745 73.5,30.5 Z"/></g>
<g><path style="opacity:1" fill="#222222" d="M 245.5,31.5 C 246.573,32.2506 246.74,33.2506 246,34.5C 244.316,36.3513 242.483,38.018 240.5,39.5C 239.479,38.9984 239.312,38.3317 240,37.5C 242.04,35.6298 243.873,33.6298 245.5,31.5 Z"/></g>
<g><path style="opacity:1" fill="#2b2b2b" d="M 247.5,36.5 C 251.06,37.8972 254.227,39.8972 257,42.5C 257.92,45.3083 257.087,47.4749 254.5,49C 253.668,49.6877 253.002,49.521 252.5,48.5C 253.5,47.1667 254.5,45.8333 255.5,44.5C 254.965,42.8987 253.965,42.3987 252.5,43C 251.315,44.353 249.981,45.5197 248.5,46.5C 248.167,46.1667 247.833,45.8333 247.5,45.5C 248.648,43.8513 249.981,42.3513 251.5,41C 251.167,40.6667 250.833,40.3333 250.5,40C 247.833,40.6667 245.167,41.3333 242.5,42C 244.373,40.2962 246.04,38.4628 247.5,36.5 Z"/></g>
<g><path style="opacity:1" fill="#2d2d2d" d="M 70.5,39.5 C 71.8174,44.3451 69.8174,46.1784 64.5,45C 61.3288,40.8571 62.3288,38.3571 67.5,37.5C 69.0296,37.6399 70.0296,38.3065 70.5,39.5 Z"/></g>
<g><path style="opacity:1" fill="#d0d0d0" d="M 70.5,39.5 C 70.8238,42.6802 69.4904,43.8469 66.5,43C 67.7051,41.6244 69.0384,40.4577 70.5,39.5 Z"/></g>
<g><path style="opacity:1" fill="#c4c4c4" d="M 65.5,38.5 C 69.1021,38.678 69.1021,39.678 65.5,41.5C 64.4376,40.5754 64.4376,39.5754 65.5,38.5 Z"/></g>
<g><path style="opacity:1" fill="#3c5b31" d="M 125.5,51.5 C 124.662,51.8417 124.328,52.5084 124.5,53.5C 122.983,53.5106 121.816,54.1772 121,55.5C 118.239,59.3599 115.739,63.3599 113.5,67.5C 112.833,68.5 112.167,69.5 111.5,70.5C 110.402,69.3991 110.235,68.0657 111,66.5C 114.385,62.7829 117.385,58.7829 120,54.5C 120,51.8333 120,49.1667 120,46.5C 121.333,45.8333 122.333,44.8333 123,43.5C 124.182,45.3436 125.349,47.1769 126.5,49C 126.257,49.9021 125.923,50.7354 125.5,51.5 Z"/></g>
<g><path style="opacity:1" fill="#c4e7ba" d="M 121.5,46.5 C 123.912,46.6941 124.912,48.0274 124.5,50.5C 123.5,50.5 122.5,50.5 121.5,50.5C 121.5,49.1667 121.5,47.8333 121.5,46.5 Z"/></g>
<g><path style="opacity:1" fill="#303030" d="M 58.5,43.5 C 61.0683,44.5737 62.7349,46.5737 63.5,49.5C 63.1924,50.3081 62.6924,50.9747 62,51.5C 59.1593,50.5796 56.326,49.5796 53.5,48.5C 55.6716,48.3241 58.0049,48.1575 60.5,48C 59.4178,46.6703 58.7512,45.1703 58.5,43.5 Z"/></g>
<g><path style="opacity:1" fill="#353535" d="M 55.5,53.5 C 57.0791,58.5556 55.0791,60.389 49.5,59C 47.4732,57.6043 47.1398,55.9376 48.5,54C 47.376,53.7508 46.376,53.2508 45.5,52.5C 48.4459,51.3452 51.4459,51.1786 54.5,52C 55.056,52.3826 55.3893,52.8826 55.5,53.5 Z"/></g>
<g><path style="opacity:1" fill="#dfdfdf" d="M 50.5,53.5 C 52.6569,54.0533 52.4903,55.0533 50,56.5C 49.5304,55.4232 49.6971,54.4232 50.5,53.5 Z"/></g>
<g><path style="opacity:1" fill="#292929" d="M 259.5,49.5 C 263.85,48.0057 265.683,49.6724 265,54.5C 261.653,58.5472 258.653,58.2138 256,53.5C 255.517,52.552 255.351,51.552 255.5,50.5C 258.29,50.2224 260.79,50.8891 263,52.5C 264.563,51.8979 264.396,51.0646 262.5,50C 261.552,49.5172 260.552,49.3505 259.5,49.5 Z"/></g>
<g><path style="opacity:1" fill="#dedede" d="M 258.5,52.5 C 260.983,52.73 261.483,53.3966 260,54.5C 258.97,54.1639 258.47,53.4972 258.5,52.5 Z"/></g>
<g><path style="opacity:1" fill="#cdcdcd" d="M 55.5,53.5 C 55.756,55.9124 54.756,57.5791 52.5,58.5C 51.9839,56.2671 52.9839,54.6004 55.5,53.5 Z"/></g>
<g><path style="opacity:1" fill="#677364" d="M 125.5,51.5 C 128.004,55.828 131.004,59.828 134.5,63.5C 134.5,63.8333 134.5,64.1667 134.5,64.5C 130.434,61.4372 127.101,57.7706 124.5,53.5C 124.328,52.5084 124.662,51.8417 125.5,51.5 Z"/></g>
<g><path style="opacity:1" fill="#2a2a2a" d="M 267.5,55.5 C 275.298,58.8804 275.298,62.2137 267.5,65.5C 267.167,65.1667 266.833,64.8333 266.5,64.5C 268.316,63.1851 269.983,61.6851 271.5,60C 270.737,59.0565 269.737,58.5565 268.5,58.5C 266.677,59.8449 264.677,60.3449 262.5,60C 264.24,58.483 265.906,56.983 267.5,55.5 Z"/></g>
<g><path style="opacity:1" fill="#262626" d="M 41.5,57.5 C 43.7802,58.6401 46.1136,59.8068 48.5,61C 50.0074,61.8373 50.5074,63.0039 50,64.5C 46.3492,63.0033 43.5159,60.6699 41.5,57.5 Z"/></g>
<g><path style="opacity:1" fill="#f5faf3" d="M 124.5,53.5 C 127.101,57.7706 130.434,61.4372 134.5,64.5C 134.893,67.5133 134.226,70.1799 132.5,72.5C 126.167,72.5 119.833,72.5 113.5,72.5C 113.5,70.8333 113.5,69.1667 113.5,67.5C 115.739,63.3599 118.239,59.3599 121,55.5C 121.816,54.1772 122.983,53.5106 124.5,53.5 Z"/></g>
<g><path style="opacity:1" fill="#282828" d="M 37.5,62.5 C 38.2389,62.369 38.9056,62.5357 39.5,63C 37.7811,64.8705 36.7811,67.0372 36.5,69.5C 39.1008,68.7204 41.1008,67.0537 42.5,64.5C 42.8333,64.8333 43.1667,65.1667 43.5,65.5C 42.2485,67.0009 41.2485,68.6675 40.5,70.5C 41,70.8333 41.5,71.1667 42,71.5C 44.654,70.1793 46.654,68.1793 48,65.5C 48.1667,66 48.3333,66.5 48.5,67C 46.8545,69.7952 44.8545,72.2952 42.5,74.5C 39.5,72.6667 36.5,70.8333 33.5,69C 35.0854,66.9307 36.4187,64.764 37.5,62.5 Z"/></g>
<g><path style="opacity:1" fill="#2b2b2b" d="M 273.5,64.5 C 278.042,64.286 279.709,66.286 278.5,70.5C 277.757,69.0921 276.923,67.7588 276,66.5C 275.82,68.4884 275.986,70.4884 276.5,72.5C 274.712,72.7852 273.045,72.4519 271.5,71.5C 272.603,71.0024 273.603,70.6691 274.5,70.5C 273.652,68.5914 273.318,66.5914 273.5,64.5 Z"/></g>
<g><path style="opacity:1" fill="#5f8455" d="M 113.5,67.5 C 113.5,69.1667 113.5,70.8333 113.5,72.5C 119.833,72.5 126.167,72.5 132.5,72.5C 126.69,73.4896 120.69,73.8229 114.5,73.5C 114.5,75.5 114.5,77.5 114.5,79.5C 114.167,79.5 113.833,79.5 113.5,79.5C 113.79,76.2153 113.123,73.2153 111.5,70.5C 112.167,69.5 112.833,68.5 113.5,67.5 Z"/></g>
<g><path style="opacity:1" fill="#e7fade" d="M 133.5,79.5 C 133.5,83.8333 133.5,88.1667 133.5,92.5C 133.5,92.8333 133.5,93.1667 133.5,93.5C 132.209,93.7373 131.209,93.404 130.5,92.5C 130.665,89.1501 130.498,85.8168 130,82.5C 129.023,81.2264 128.189,81.2264 127.5,82.5C 126.834,86.0208 126.167,89.6875 125.5,93.5C 124.833,90.0227 124.166,86.6893 123.5,83.5C 122.895,81.5188 121.895,81.1854 120.5,82.5C 119.5,82.5 118.5,82.5 117.5,82.5C 117.5,81.1667 117.5,79.8333 117.5,78.5C 123.026,78.1786 128.36,78.5119 133.5,79.5 Z"/></g>
<g><path style="opacity:1" fill="#2a2a2a" d="M 30.5,79.5 C 31.552,79.3505 32.552,79.5172 33.5,80C 29.6267,85.0527 29.96,85.3861 34.5,81C 35.448,80.5172 36.448,80.3505 37.5,80.5C 37.8957,83.0444 37.229,85.2111 35.5,87C 34.6683,87.6877 34.0016,87.521 33.5,86.5C 34.2421,85.7132 35.0754,85.0465 36,84.5C 36.6877,83.6683 36.521,83.0016 35.5,82.5C 33.7539,84.8541 31.4206,85.8541 28.5,85.5C 28.6036,83.2972 29.2702,81.2972 30.5,79.5 Z"/></g>
<g><path style="opacity:1" fill="#202020" d="M 280.5,84.5 C 279.351,84.2089 278.684,83.3756 278.5,82C 278.601,79.3991 279.935,77.8991 282.5,77.5C 285.4,78.721 288.066,80.3876 290.5,82.5C 287.83,84.1157 284.996,85.4491 282,86.5C 280.97,86.1639 280.47,85.4972 280.5,84.5 Z"/></g>
<g><path style="opacity:1" fill="#e4e4e4" d="M 280.5,84.5 C 279.737,80.8622 281.07,79.3622 284.5,80C 286.009,83.6693 284.676,85.1693 280.5,84.5 Z"/></g>
<g><path style="opacity:1" fill="#879484" d="M 133.5,79.5 C 134.167,79.5 134.833,79.5 135.5,79.5C 135.5,83.8333 135.5,88.1667 135.5,92.5C 135.5,93.1667 135.5,93.8333 135.5,94.5C 134.833,93.8333 134.167,93.1667 133.5,92.5C 133.5,88.1667 133.5,83.8333 133.5,79.5 Z"/></g>
<g><path style="opacity:1" fill="#e6f7e2" d="M 113.5,79.5 C 113.833,79.5 114.167,79.5 114.5,79.5C 115.164,81.9779 115.497,84.6445 115.5,87.5C 114.49,101.168 113.157,114.502 111.5,127.5C 111.276,111.301 111.942,95.3013 113.5,79.5 Z"/></g>
<g><path style="opacity:1" fill="#b6e4aa" d="M 117.5,82.5 C 118.5,82.5 119.5,82.5 120.5,82.5C 119.586,85.728 119.253,89.0613 119.5,92.5C 120.833,92.5 122.167,92.5 123.5,92.5C 123.5,89.5 123.5,86.5 123.5,83.5C 124.166,86.6893 124.833,90.0227 125.5,93.5C 126.167,89.6875 126.834,86.0208 127.5,82.5C 127.5,85.8333 127.5,89.1667 127.5,92.5C 128.5,92.5 129.5,92.5 130.5,92.5C 131.209,93.404 132.209,93.7373 133.5,93.5C 128.36,94.4881 123.026,94.8214 117.5,94.5C 117.5,90.5 117.5,86.5 117.5,82.5 Z"/></g>
<g><path style="opacity:1" fill="#2e2e2e" d="M 284.5,87.5 C 289.993,86.178 292.493,88.178 292,93.5C 291.311,94.3567 290.478,95.0233 289.5,95.5C 288.081,93.6641 286.914,91.6641 286,89.5C 285.175,91.7008 285.675,93.5341 287.5,95C 286.5,95.6667 285.5,95.6667 284.5,95C 283.221,92.5024 283.221,90.0024 284.5,87.5 Z"/></g>
<g><path style="opacity:1" fill="#2b5f24" d="M 123.5,83.5 C 123.5,86.5 123.5,89.5 123.5,92.5C 122.167,92.5 120.833,92.5 119.5,92.5C 119.253,89.0613 119.586,85.728 120.5,82.5C 121.895,81.1854 122.895,81.5188 123.5,83.5 Z"/></g>
<g><path style="opacity:1" fill="#305d23" d="M 130.5,92.5 C 129.5,92.5 128.5,92.5 127.5,92.5C 127.5,89.1667 127.5,85.8333 127.5,82.5C 128.189,81.2264 129.023,81.2264 130,82.5C 130.498,85.8168 130.665,89.1501 130.5,92.5 Z"/></g>
<g><path style="opacity:1" fill="#cdcdcd" d="M 288.5,89.5 C 290.344,90.2039 290.844,91.5372 290,93.5C 289.209,92.255 288.709,90.9217 288.5,89.5 Z"/></g>
<g><path style="opacity:1" fill="#353535" d="M 27.5,87.5 C 28.5,87.5 29.5,87.5 30.5,87.5C 30.683,89.9363 30.0163,92.103 28.5,94C 29.635,94.7494 30.635,94.5827 31.5,93.5C 31.8333,92.1667 32.1667,90.8333 32.5,89.5C 34.2079,94.9613 32.2079,97.128 26.5,96C 23.8146,92.8833 24.148,90.05 27.5,87.5 Z"/></g>
<g><path style="opacity:1" fill="#e0e0e0" d="M 26.5,90.5 C 28.9732,90.9473 29.1399,91.9473 27,93.5C 26.5172,92.552 26.3505,91.552 26.5,90.5 Z"/></g>
<g><path style="opacity:1" fill="#292929" d="M 19.5,96.5 C 23.3022,96.8737 26.6355,98.207 29.5,100.5C 28.7265,105.15 26.0598,106.65 21.5,105C 20.1667,103 20.1667,101 21.5,99C 20.244,98.5831 19.5774,97.7498 19.5,96.5 Z"/></g>
<g><path style="opacity:1" fill="#d7d7d7" d="M 22.5,99.5 C 26.1378,98.7366 27.6378,100.07 27,103.5C 24.5068,104.946 22.6735,104.279 21.5,101.5C 21.8627,100.817 22.1961,100.15 22.5,99.5 Z"/></g>
<g><path style="opacity:1" fill="#2f2f2f" d="M 293.5,101.5 C 301.371,101.276 303.704,104.609 300.5,111.5C 300.245,109.657 300.078,107.657 300,105.5C 293.702,101.793 291.535,103.46 293.5,110.5C 297.381,112.143 297.381,112.976 293.5,113C 289.508,109.001 289.508,105.168 293.5,101.5 Z"/></g>
<g><path style="opacity:1" fill="#252525" d="M 301.5,115.5 C 302.341,117.379 302.675,119.379 302.5,121.5C 298.581,124.687 295.914,123.853 294.5,119C 295.265,114.724 297.599,113.557 301.5,115.5 Z"/></g>
<g><path style="opacity:1" fill="#6c6c6c" d="M 301.5,115.5 C 303.948,115.085 305.281,116.085 305.5,118.5C 305.132,120.175 304.132,121.175 302.5,121.5C 302.675,119.379 302.341,117.379 301.5,115.5 Z"/></g>
<g><path style="opacity:1" fill="#d2ebcd" d="M 135.5,92.5 C 136.117,92.6107 136.617,92.944 137,93.5C 138.248,104.464 138.748,115.464 138.5,126.5C 137.833,126.5 137.5,126.833 137.5,127.5C 136.813,116.599 136.146,105.599 135.5,94.5C 135.5,93.8333 135.5,93.1667 135.5,92.5 Z"/></g>
<g><path style="opacity:1" fill="#dedede" d="M 296.5,116.5 C 300.138,115.737 301.638,117.07 301,120.5C 296.415,122.413 294.915,121.079 296.5,116.5 Z"/></g>
<g><path style="opacity:1" fill="#282828" d="M 16.5,113.5 C 19.2469,113.187 21.9135,113.52 24.5,114.5C 22.2573,115.474 19.924,115.808 17.5,115.5C 17.33,116.822 17.6634,117.989 18.5,119C 20.2556,119.202 21.9223,119.702 23.5,120.5C 20.8742,121.449 18.2075,121.449 15.5,120.5C 15.448,118.097 15.7814,115.764 16.5,113.5 Z"/></g>
<g><path style="opacity:1" fill="#e4f3de" d="M 159.5,105.5 C 157.031,106.317 154.365,106.817 151.5,107C 153,109.833 155.167,112 158,113.5C 158.26,116.577 157.76,119.577 156.5,122.5C 156.747,123.713 157.414,124.38 158.5,124.5C 156.691,125.291 154.691,125.291 152.5,124.5C 152.473,121.77 153.14,119.27 154.5,117C 153.182,113.675 151.848,110.341 150.5,107C 151.535,105.726 152.702,104.56 154,103.5C 155.584,104.861 157.418,105.528 159.5,105.5 Z"/></g>
<g><path style="opacity:1" fill="#3d682e" d="M 158.5,124.5 C 157.414,124.38 156.747,123.713 156.5,122.5C 157.76,119.577 158.26,116.577 158,113.5C 155.167,112 153,109.833 151.5,107C 154.365,106.817 157.031,106.317 159.5,105.5C 160.675,105.719 161.675,105.386 162.5,104.5C 163.569,101.461 164.735,98.4606 166,95.5C 167.833,98.5 169.667,101.5 171.5,104.5C 175.122,105.325 178.789,105.825 182.5,106C 179.728,108.688 177.062,111.354 174.5,114C 175.269,117.243 176.269,120.41 177.5,123.5C 177.167,123.833 176.833,124.167 176.5,124.5C 173.249,122.625 170.082,120.625 167,118.5C 163.709,119.975 160.875,121.975 158.5,124.5 Z"/></g>
<g><path style="opacity:1" fill="#d8f1cd" d="M 163.5,108.5 C 162.492,113.667 164.325,115.334 169,113.5C 170.519,111.861 170.686,110.194 169.5,108.5C 171.527,108.338 173.527,108.505 175.5,109C 173.981,110.351 172.648,111.851 171.5,113.5C 172.681,115.198 172.681,116.865 171.5,118.5C 169.668,117.752 168.001,116.752 166.5,115.5C 164.578,116.711 162.745,118.044 161,119.5C 162.592,115.202 161.425,111.868 157.5,109.5C 159.396,108.534 161.396,108.201 163.5,108.5 Z"/></g>
<g><path style="opacity:1" fill="#f1f7f3" d="M 169.5,108.5 C 170.686,110.194 170.519,111.861 169,113.5C 164.325,115.334 162.492,113.667 163.5,108.5C 165.447,101.895 167.447,101.895 169.5,108.5 Z"/></g>
<g><path style="opacity:1" fill="#1e1e1e" d="M 300.5,125.5 C 302.604,125.201 304.604,125.534 306.5,126.5C 304.873,128.603 302.873,128.936 300.5,127.5C 299.006,127.709 297.839,128.376 297,129.5C 296.517,128.552 296.351,127.552 296.5,126.5C 298.099,126.768 299.432,126.434 300.5,125.5 Z"/></g>
<g><path style="opacity:1" fill="#2f6420" d="M 134.5,63.5 C 135.117,63.6107 135.617,63.944 136,64.5C 136.778,69.5842 136.611,74.5842 135.5,79.5C 134.833,79.5 134.167,79.5 133.5,79.5C 128.36,78.5119 123.026,78.1786 117.5,78.5C 117.5,79.8333 117.5,81.1667 117.5,82.5C 117.5,86.5 117.5,90.5 117.5,94.5C 123.026,94.8214 128.36,94.4881 133.5,93.5C 133.5,93.1667 133.5,92.8333 133.5,92.5C 134.167,93.1667 134.833,93.8333 135.5,94.5C 136.146,105.599 136.813,116.599 137.5,127.5C 138.5,127.5 139.5,127.5 140.5,127.5C 140.174,136.349 140.507,145.016 141.5,153.5C 141.5,153.833 141.5,154.167 141.5,154.5C 139.517,154.843 138.183,154.176 137.5,152.5C 138.651,147.35 138.817,142.016 138,136.5C 137.617,135.944 137.117,135.611 136.5,135.5C 129.731,132.869 123.065,132.869 116.5,135.5C 114.025,136.687 113.025,138.687 113.5,141.5C 111.564,137.285 110.897,132.619 111.5,127.5C 113.157,114.502 114.49,101.168 115.5,87.5C 115.497,84.6445 115.164,81.9779 114.5,79.5C 114.5,77.5 114.5,75.5 114.5,73.5C 120.69,73.8229 126.69,73.4896 132.5,72.5C 134.226,70.1799 134.893,67.5133 134.5,64.5C 134.5,64.1667 134.5,63.8333 134.5,63.5 Z"/></g>
<g><path style="opacity:1" fill="#2e5524" d="M 128.5,101.5 C 128.169,109.528 128.502,117.528 129.5,125.5C 130.167,121.018 130.834,116.684 131.5,112.5C 132.487,117.305 132.821,122.305 132.5,127.5C 130.833,127.5 129.167,127.5 127.5,127.5C 127.174,118.651 127.507,109.984 128.5,101.5 Z"/></g>
<g><path style="opacity:1" fill="#bee6b3" d="M 124.5,125.5 C 124.5,117.833 124.5,110.167 124.5,102.5C 124.56,101.957 124.893,101.624 125.5,101.5C 126.833,109.833 126.833,118.167 125.5,126.5C 124.893,126.376 124.56,126.043 124.5,125.5 Z"/></g>
<g><path style="opacity:1" fill="#37582e" d="M 122.5,101.5 C 123.167,101.833 123.833,102.167 124.5,102.5C 124.5,110.167 124.5,117.833 124.5,125.5C 123.833,125.833 123.167,126.167 122.5,126.5C 122.5,118.167 122.5,109.833 122.5,101.5 Z"/></g>
<g><path style="opacity:1" fill="#77986d" d="M 119.5,111.5 C 119.859,116.749 120.859,121.749 122.5,126.5C 121.791,127.404 120.791,127.737 119.5,127.5C 119.5,122.167 119.5,116.833 119.5,111.5 Z"/></g>
<g><path style="opacity:1" fill="#8db783" d="M 122.5,101.5 C 120.5,101.5 118.5,101.5 116.5,101.5C 116.5,109.833 116.5,118.167 116.5,126.5C 115.507,118.016 115.174,109.349 115.5,100.5C 118.059,100.198 120.393,100.532 122.5,101.5 Z"/></g>
<g><path style="opacity:1" fill="#6ea563" d="M 134.5,101.5 C 135.821,109.676 135.821,118.009 134.5,126.5C 133.893,126.376 133.56,126.043 133.5,125.5C 134.492,117.684 134.826,109.684 134.5,101.5 Z"/></g>
<g><path style="opacity:1" fill="#e8fce2" d="M 122.5,101.5 C 122.5,109.833 122.5,118.167 122.5,126.5C 120.859,121.749 119.859,116.749 119.5,111.5C 117.859,116.251 116.859,121.251 116.5,126.5C 116.5,118.167 116.5,109.833 116.5,101.5C 118.5,101.5 120.5,101.5 122.5,101.5 Z"/></g>
<g><path style="opacity:1" fill="#e1f7da" d="M 134.5,101.5 C 134.826,109.684 134.492,117.684 133.5,125.5C 133.827,120.786 133.493,116.12 132.5,111.5C 131.893,111.624 131.56,111.957 131.5,112.5C 130.834,116.684 130.167,121.018 129.5,125.5C 128.502,117.528 128.169,109.528 128.5,101.5C 130.5,100.167 132.5,100.167 134.5,101.5 Z"/></g>
<g><path style="opacity:1" fill="#363636" d="M 21.5,130.5 C 16.7892,132.701 14.2892,131.368 14,126.5C 15.2865,129.145 17.4532,130.145 20.5,129.5C 20.7135,127.856 20.3802,126.356 19.5,125C 17.6194,125.096 15.9527,124.929 14.5,124.5C 16.6934,123.203 19.0268,123.203 21.5,124.5C 22.819,126.532 22.819,128.532 21.5,130.5 Z"/></g>
<g><path style="opacity:1" fill="#d1d1d1" d="M 14.5,124.5 C 15.9527,124.929 17.6194,125.096 19.5,125C 20.3802,126.356 20.7135,127.856 20.5,129.5C 17.4532,130.145 15.2865,129.145 14,126.5C 14.2892,131.368 16.7892,132.701 21.5,130.5C 22.4709,131.962 22.1376,133.295 20.5,134.5C 17.8872,133.565 15.2205,133.398 12.5,134C 15.0627,135.079 17.7294,135.579 20.5,135.5C 20.7373,136.791 20.404,137.791 19.5,138.5C 16.7496,139.1 14.083,138.433 11.5,136.5C 11.0962,135.244 10.4295,134.077 9.5,133C 9.83333,132.5 10.1667,132 10.5,131.5C 14.061,132.794 14.3943,131.96 11.5,129C 11.9147,126.974 12.9147,125.474 14.5,124.5 Z"/></g>
<g><path style="opacity:1" fill="#1c1c1c" d="M 20.5,134.5 C 20.5,134.833 20.5,135.167 20.5,135.5C 17.7294,135.579 15.0627,135.079 12.5,134C 15.2205,133.398 17.8872,133.565 20.5,134.5 Z"/></g>
<g><path style="opacity:1" fill="#353535" d="M 301.5,136.5 C 301.684,134.075 302.351,134.075 303.5,136.5C 304.932,133.581 303.932,132.248 300.5,132.5C 297.962,134.322 297.962,136.322 300.5,138.5C 298.675,139.571 297.508,138.904 297,136.5C 296.336,131.504 298.502,129.67 303.5,131C 306.355,134.222 306.021,137.056 302.5,139.5C 301.614,138.675 301.281,137.675 301.5,136.5 Z"/></g>
<g><path style="opacity:1" fill="#898989" d="M 300.5,132.5 C 303.932,132.248 304.932,133.581 303.5,136.5C 302.351,134.075 301.684,134.075 301.5,136.5C 300.566,135.432 300.232,134.099 300.5,132.5 Z"/></g>
<g><path style="opacity:1" fill="#8fb683" d="M 136.5,135.5 C 137.117,135.611 137.617,135.944 138,136.5C 138.817,142.016 138.651,147.35 137.5,152.5C 137.74,146.773 137.407,141.106 136.5,135.5 Z"/></g>
<g><path style="opacity:1" fill="#2a2a2a" d="M 11.5,136.5 C 14.083,138.433 16.7496,139.1 19.5,138.5C 18.4855,139.765 16.9855,140.431 15,140.5C 12.5303,140.66 10.3636,139.993 8.5,138.5C 9.60164,137.824 10.6016,137.158 11.5,136.5 Z"/></g>
<g><path style="opacity:1" fill="#242424" d="M 14.5,150.5 C 15.209,149.596 16.209,149.263 17.5,149.5C 17.67,148.178 17.3366,147.011 16.5,146C 15.0654,146.311 13.7321,146.145 12.5,145.5C 11.3336,147.167 11.3336,148.834 12.5,150.5C 12.19,151.738 11.69,151.738 11,150.5C 9.39291,144.082 11.8929,141.749 18.5,143.5C 18.6633,145.857 18.4966,148.19 18,150.5C 16.7083,151.791 15.5417,151.791 14.5,150.5 Z"/></g>
<g><path style="opacity:1" fill="#f7fef3" d="M 186.5,185.5 C 186.414,184.504 186.748,183.671 187.5,183C 191.356,182.823 195.023,182.323 198.5,181.5C 199.816,172.265 199.816,162.932 198.5,153.5C 179.674,152.503 160.674,152.17 141.5,152.5C 141.826,143.983 141.493,135.65 140.5,127.5C 139.5,127.5 138.5,127.5 137.5,127.5C 137.5,126.833 137.833,126.5 138.5,126.5C 141.346,126.191 142.846,124.525 143,121.5C 142.753,128.804 142.586,136.137 142.5,143.5C 148.206,143.171 153.872,143.505 159.5,144.5C 154.198,145.329 148.864,145.829 143.5,146C 142.62,147.356 142.286,148.856 142.5,150.5C 159.498,150 176.498,149.5 193.5,149C 194.624,146.518 196.29,146.018 198.5,147.5C 199.187,149.274 200.02,150.941 201,152.5C 201.667,162.167 201.667,171.833 201,181.5C 200.167,183 199,184.167 197.5,185C 193.848,185.499 190.182,185.665 186.5,185.5 Z"/></g>
<g><path style="opacity:1" fill="#a0a0a0" d="M 14.5,150.5 C 13.8333,150.5 13.1667,150.5 12.5,150.5C 11.3336,148.834 11.3336,147.167 12.5,145.5C 13.7321,146.145 15.0654,146.311 16.5,146C 17.3366,147.011 17.67,148.178 17.5,149.5C 16.209,149.263 15.209,149.596 14.5,150.5 Z"/></g>
<g><path style="opacity:1" fill="#4d6747" d="M 111.5,127.5 C 110.897,132.619 111.564,137.285 113.5,141.5C 113.5,145.167 113.5,148.833 113.5,152.5C 121.5,152.5 129.5,152.5 137.5,152.5C 138.183,154.176 139.517,154.843 141.5,154.5C 160.008,154.17 178.341,154.503 196.5,155.5C 165.833,155.5 135.167,155.5 104.5,155.5C 106.167,154.833 107.833,154.167 109.5,153.5C 110.167,153.5 110.5,153.167 110.5,152.5C 110.174,143.983 110.507,135.65 111.5,127.5 Z"/></g>
<g><path style="opacity:1" fill="#f1fded" d="M 136.5,135.5 C 137.407,141.106 137.74,146.773 137.5,152.5C 129.5,152.5 121.5,152.5 113.5,152.5C 113.5,148.833 113.5,145.167 113.5,141.5C 113.025,138.687 114.025,136.687 116.5,135.5C 123.065,132.869 129.731,132.869 136.5,135.5 Z"/></g>
<g><path style="opacity:1" fill="#fdfcfc" d="M 116.5,135.5 C 122.509,135.334 128.509,135.501 134.5,136C 135.46,141.088 136.127,146.254 136.5,151.5C 134.4,151.523 132.567,150.856 131,149.5C 129.739,149.759 128.739,150.426 128,151.5C 126.687,150.427 125.187,149.76 123.5,149.5C 121.528,150.443 119.695,150.776 118,150.5C 116.688,148.045 115.522,145.545 114.5,143C 115.867,140.699 116.534,138.199 116.5,135.5 Z"/></g>
<g><path style="opacity:1" fill="#525252" d="M 6.5,151.5 C 8.33702,151.639 8.67036,152.306 7.5,153.5C 6.70245,153.043 6.36912,152.376 6.5,151.5 Z"/></g>
<g><path style="opacity:1" fill="#aac0a6" d="M 140.5,127.5 C 141.493,135.65 141.826,143.983 141.5,152.5C 160.674,152.17 179.674,152.503 198.5,153.5C 179.5,153.5 160.5,153.5 141.5,153.5C 140.507,145.016 140.174,136.349 140.5,127.5 Z"/></g>
<g><path style="opacity:1" fill="#212121" d="M 300.5,145.5 C 302.527,145.338 304.527,145.505 306.5,146C 307.38,147.356 307.714,148.856 307.5,150.5C 308.978,150.238 310.311,150.571 311.5,151.5C 307.869,153.055 304.203,153.388 300.5,152.5C 299.178,150.135 299.178,147.802 300.5,145.5 Z"/></g>
<g><path style="opacity:1" fill="#e9e9e9" d="M 301.5,147.5 C 302.873,147.343 304.207,147.51 305.5,148C 306.451,148.718 306.617,149.551 306,150.5C 302.054,152.36 300.554,151.36 301.5,147.5 Z"/></g>
<g><path style="opacity:1" fill="#282828" d="M 9.5,152.5 C 12.4005,152.28 15.0671,152.946 17.5,154.5C 17,154.833 16.5,155.167 16,155.5C 13.2696,155.294 11.1029,154.294 9.5,152.5 Z"/></g>
<g><path style="opacity:1" fill="#1e1e1e" d="M 311.5,156.5 C 312.043,156.56 312.376,156.893 312.5,157.5C 311.635,158.583 310.635,158.749 309.5,158C 310.416,157.722 311.082,157.222 311.5,156.5 Z"/></g>
<g><path style="opacity:1" fill="#94a990" d="M 110.5,152.5 C 110.5,153.167 110.167,153.5 109.5,153.5C 107.208,153.244 105.041,153.577 103,154.5C 102.5,163.16 102.334,171.827 102.5,180.5C 101.343,171.676 101.176,162.676 102,153.5C 104.719,152.556 107.552,152.223 110.5,152.5 Z"/></g>
<g><path style="opacity:1" fill="#233c20" d="M 109.5,153.5 C 107.833,154.167 106.167,154.833 104.5,155.5C 103.833,163.833 103.167,172.167 102.5,180.5C 102.334,171.827 102.5,163.16 103,154.5C 105.041,153.577 107.208,153.244 109.5,153.5 Z"/></g>
<g><path style="opacity:1" fill="#242424" d="M 301.5,161.5 C 305.226,161.177 308.893,161.511 312.5,162.5C 310.667,162.833 308.833,163.167 307,163.5C 304.705,163.453 302.871,162.787 301.5,161.5 Z"/></g>
<g><path style="opacity:1" fill="#3b3b3b" d="M 9.5,157.5 C 10.3764,157.369 11.0431,157.702 11.5,158.5C 10.6906,160.071 10.3573,161.738 10.5,163.5C 12.1439,163.714 13.6439,163.38 15,162.5C 14.9536,160.687 15.1203,159.021 15.5,157.5C 18.8876,163.286 17.2209,165.786 10.5,165C 8.28541,162.758 7.95208,160.258 9.5,157.5 Z"/></g>
<g><path style="opacity:1" fill="#2a2a2a" d="M 307.5,165.5 C 309.028,165.517 309.528,166.184 309,167.5C 307.391,168.147 305.891,168.98 304.5,170C 306.332,170.748 307.999,171.748 309.5,173C 306.21,173.689 303.543,172.689 301.5,170C 303.136,168.057 305.136,166.557 307.5,165.5 Z"/></g>
<g><path style="opacity:1" fill="#303030" d="M 10.5,166.5 C 17.4438,166.272 19.1105,169.106 15.5,175C 8.4159,175.475 6.74923,172.642 10.5,166.5 Z"/></g>
<g><path style="opacity:1" fill="#e3e3e3" d="M 10.5,168.5 C 14.6759,167.831 16.0093,169.331 14.5,173C 13.2068,173.49 11.8734,173.657 10.5,173.5C 10.5,171.833 10.5,170.167 10.5,168.5 Z"/></g>
<g><path style="opacity:1" fill="#2d2d2d" d="M 13.5,176.5 C 18.1136,178.297 18.6136,180.964 15,184.5C 15.4978,182.473 15.3311,180.473 14.5,178.5C 13.6816,180.108 13.0149,181.775 12.5,183.5C 11.635,184.583 10.635,184.749 9.5,184C 8.09218,181.708 8.25885,179.541 10,177.5C 10.4922,178.549 10.3256,179.549 9.5,180.5C 9.80762,181.308 10.3076,181.975 11,182.5C 11.9383,180.512 12.7717,178.512 13.5,176.5 Z"/></g>
<g><path style="opacity:1" fill="#303030" d="M 302.5,175.5 C 309.158,174.344 311.158,176.844 308.5,183C 301.75,184.469 299.75,181.969 302.5,175.5 Z"/></g>
<g><path style="opacity:1" fill="#e9e9e9" d="M 302.5,177.5 C 304.977,177.051 306.977,177.717 308.5,179.5C 307.307,181.384 305.641,181.884 303.5,181C 302.663,179.989 302.33,178.822 302.5,177.5 Z"/></g>
<g><path style="opacity:1" fill="#6a8266" d="M 104.5,155.5 C 104.5,163.5 104.5,171.5 104.5,179.5C 135.167,179.5 165.833,179.5 196.5,179.5C 196.5,171.5 196.5,163.5 196.5,155.5C 197.493,163.65 197.826,171.983 197.5,180.5C 164.149,180.158 135.482,180.491 111.5,181.5C 111.5,182.167 111.5,182.833 111.5,183.5C 108.071,183.231 105.071,182.231 102.5,180.5C 103.167,172.167 103.833,163.833 104.5,155.5 Z"/></g>
<g><path style="opacity:1" fill="#f3f6f3" d="M 104.5,155.5 C 135.167,155.5 165.833,155.5 196.5,155.5C 196.5,163.5 196.5,171.5 196.5,179.5C 165.833,179.5 135.167,179.5 104.5,179.5C 104.5,171.5 104.5,163.5 104.5,155.5 Z"/></g>
<g><path style="opacity:1" fill="#5e5e5e" d="M 112.5,169.5 C 113.741,171.931 114.908,171.931 116,169.5C 117.335,171.605 119.002,172.271 121,171.5C 121.333,172.167 121.667,172.833 122,173.5C 122.667,172.167 123.333,170.833 124,169.5C 124.689,170.357 125.522,171.023 126.5,171.5C 129.084,170.607 131.751,170.274 134.5,170.5C 134.66,172.199 134.494,173.866 134,175.5C 133.193,171.551 132.693,171.551 132.5,175.5C 130.167,175.5 127.833,175.5 125.5,175.5C 125.167,171.5 124.833,171.5 124.5,175.5C 120.653,174.98 116.653,174.98 112.5,175.5C 112.5,173.5 112.5,171.5 112.5,169.5 Z"/></g>
<g><path style="opacity:1" fill="#656766" d="M 169.5,169.5 C 170.75,169.577 171.583,170.244 172,171.5C 173,168.833 174,168.833 175,171.5C 181.223,171.265 187.723,170.931 194.5,170.5C 195.052,172.003 195.052,173.669 194.5,175.5C 192.856,175.714 191.356,175.38 190,174.5C 189.751,175.624 189.251,176.624 188.5,177.5C 183.273,176.246 178.106,174.912 173,173.5C 172.29,174.973 171.124,175.64 169.5,175.5C 169.5,173.5 169.5,171.5 169.5,169.5 Z"/></g>
<g><path style="opacity:1" fill="#6a6c6b" d="M 158.5,169.5 C 160.017,169.511 161.184,170.177 162,171.5C 163.699,170.594 165.533,170.261 167.5,170.5C 167.66,172.199 167.494,173.866 167,175.5C 166.193,171.551 165.693,171.551 165.5,175.5C 162.833,175.5 160.167,175.5 157.5,175.5C 157.325,173.379 157.659,171.379 158.5,169.5 Z"/></g>
<g><path style="opacity:1" fill="#686a69" d="M 154.5,169.5 C 155.622,171.288 155.789,173.288 155,175.5C 152.766,175.626 150.432,175.293 148,174.5C 147.171,171.326 148.171,170.326 151,171.5C 152.302,170.915 153.469,170.249 154.5,169.5 Z"/></g>
<g><path style="opacity:1" fill="#6b6b6b" d="M 135.5,170.5 C 138.881,170.46 142.214,170.793 145.5,171.5C 145.762,172.978 145.429,174.311 144.5,175.5C 142.674,175.08 140.674,175.08 138.5,175.5C 138.307,171.551 137.807,171.551 137,175.5C 136.392,173.846 135.892,172.179 135.5,170.5 Z"/></g>
<g><path style="opacity:1" fill="#4b4b46" d="M 106.5,170.5 C 107.5,170.5 108.5,170.5 109.5,170.5C 109.657,171.873 109.49,173.207 109,174.5C 108.586,174.043 108.086,173.709 107.5,173.5C 107.167,174.167 106.833,174.833 106.5,175.5C 105.334,173.833 105.334,172.166 106.5,170.5 Z"/></g>
<g><path style="opacity:1" fill="#6d6f6e" d="M 170.5,158.5 C 174.038,158.215 175.871,159.882 176,163.5C 176.219,162.062 176.719,160.729 177.5,159.5C 179.164,160.223 180.831,159.89 182.5,158.5C 184.577,159.988 185.577,161.988 185.5,164.5C 180.985,164.346 176.652,164.346 172.5,164.5C 172.446,163.313 172.113,161.98 171.5,160.5C 170.571,161.689 170.238,163.022 170.5,164.5C 168.876,164.36 167.71,165.027 167,166.5C 165.331,164.831 164.498,162.831 164.5,160.5C 165.833,160.5 167.167,160.5 168.5,160.5C 168.351,161.552 168.517,162.552 169,163.5C 169.352,161.753 169.852,160.086 170.5,158.5 Z"/></g>
<g><path style="opacity:1" fill="#777878" d="M 142.5,158.5 C 145.365,158.055 147.865,158.722 150,160.5C 151.729,158.566 153.729,158.566 156,160.5C 156.388,159.572 157.055,158.905 158,158.5C 161.484,158.306 162.984,160.306 162.5,164.5C 158.327,165.044 154.494,164.377 151,162.5C 150.667,163.167 150.333,163.833 150,164.5C 147.712,164.263 145.212,164.263 142.5,164.5C 142.5,162.5 142.5,160.5 142.5,158.5 Z"/></g>
<g><path style="opacity:1" fill="#5e5e5e" d="M 136.5,158.5 C 137.66,159.611 138.993,160.611 140.5,161.5C 139.359,162.425 139.359,163.259 140.5,164C 138.613,163.577 136.613,163.744 134.5,164.5C 134.253,162.142 134.919,160.142 136.5,158.5 Z"/></g>
<g><path style="opacity:1" fill="#575757" d="M 123.5,160.5 C 123.369,159.761 123.536,159.094 124,158.5C 127.534,160.105 128.2,162.439 126,165.5C 125.901,163.347 125.067,161.681 123.5,160.5 Z"/></g>
<g><path style="opacity:1" fill="#464646" d="M 123.5,160.5 C 123.543,164.893 123.043,165.226 122,161.5C 121.667,162.5 121.333,163.5 121,164.5C 120.202,162.741 120.369,161.074 121.5,159.5C 122.183,159.863 122.85,160.196 123.5,160.5 Z"/></g>
<g><path style="opacity:1" fill="#636363" d="M 130.5,159.5 C 132.256,160.552 132.923,162.219 132.5,164.5C 131.5,164.5 130.5,164.5 129.5,164.5C 129.366,162.708 129.699,161.042 130.5,159.5 Z"/></g>
<g><path style="opacity:1" fill="#858485" d="M 115.5,158.5 C 116.5,158.5 117.5,158.5 118.5,158.5C 118.5,160.5 118.5,162.5 118.5,164.5C 117.5,164.5 116.5,164.5 115.5,164.5C 115.5,162.5 115.5,160.5 115.5,158.5 Z"/></g>
<g><path style="opacity:1" fill="#294323" d="M 141.5,154.5 C 141.5,154.167 141.5,153.833 141.5,153.5C 160.5,153.5 179.5,153.5 198.5,153.5C 199.816,162.932 199.816,172.265 198.5,181.5C 192.833,181.5 187.167,181.5 181.5,181.5C 160.833,181.5 140.167,181.5 119.5,181.5C 117.265,181.205 115.265,181.539 113.5,182.5C 112.833,182.167 112.167,181.833 111.5,181.5C 135.482,180.491 164.149,180.158 197.5,180.5C 197.826,171.983 197.493,163.65 196.5,155.5C 178.341,154.503 160.008,154.17 141.5,154.5 Z"/></g>
<g><path style="opacity:1" fill="#242424" d="M 301.5,185.5 C 304.247,185.187 306.914,185.52 309.5,186.5C 308.167,186.833 306.833,187.167 305.5,187.5C 303.667,187.415 302.334,186.748 301.5,185.5 Z"/></g>
<g><path style="opacity:1" fill="#2f2f2f" d="M 9.5,186.5 C 10.0716,188.119 10.4049,189.785 10.5,191.5C 11.9501,190.15 12.6168,188.484 12.5,186.5C 16.6484,186.453 18.1484,188.453 17,192.5C 16.586,192.957 16.086,193.291 15.5,193.5C 15.3306,191.883 14.9972,190.216 14.5,188.5C 13.7564,189.991 13.0897,191.491 12.5,193C 11.2161,193.684 10.0495,193.517 9,192.5C 8.32239,190.402 8.48905,188.402 9.5,186.5 Z"/></g>
<g><path style="opacity:1" fill="#212121" d="M 301.5,190.5 C 304.167,190.5 306.833,190.5 309.5,190.5C 309.657,191.873 309.49,193.207 309,194.5C 306.338,193.239 303.838,191.906 301.5,190.5 Z"/></g>
<g><path style="opacity:1" fill="#323232" d="M 303.5,195.5 C 309.643,196.026 310.976,198.86 307.5,204C 301.92,205.261 300.087,203.094 302,197.5C 302.717,196.956 303.217,196.289 303.5,195.5 Z"/></g>
<g><path style="opacity:1" fill="#d8d8d8" d="M 306.5,198.5 C 308.97,199.36 309.137,200.694 307,202.5C 306.51,201.207 306.343,199.873 306.5,198.5 Z"/></g>
<g><path style="opacity:1" fill="#2b2b2b" d="M 13.5,195.5 C 17.5,196.167 17.5,196.833 13.5,197.5C 13.5,199.5 13.5,201.5 13.5,203.5C 16.462,203.117 17.462,204.117 16.5,206.5C 12.91,204.868 9.24328,203.534 5.5,202.5C 5.33003,201.178 5.66337,200.011 6.5,199C 8.92521,197.787 11.2585,196.621 13.5,195.5 Z"/></g>
<g><path style="opacity:1" fill="#426439" d="M 111.5,181.5 C 112.167,181.833 112.833,182.167 113.5,182.5C 115.265,181.539 117.265,181.205 119.5,181.5C 119.5,181.833 119.5,182.167 119.5,182.5C 119.062,182.435 118.728,182.601 118.5,183C 132.32,194.773 147.986,197.773 165.5,192C 167.066,191.392 168.4,190.558 169.5,189.5C 173.577,188.294 177.243,186.294 180.5,183.5C 181.338,183.158 181.672,182.492 181.5,181.5C 187.167,181.5 192.833,181.5 198.5,181.5C 195.023,182.323 191.356,182.823 187.5,183C 186.748,183.671 186.414,184.504 186.5,185.5C 175.087,204.696 158.42,211.529 136.5,206C 125.155,201.82 116.821,194.32 111.5,183.5C 111.5,182.833 111.5,182.167 111.5,181.5 Z"/></g>
<g><path style="opacity:1" fill="#728a6d" d="M 119.5,182.5 C 119.5,182.167 119.5,181.833 119.5,181.5C 140.167,181.5 160.833,181.5 181.5,181.5C 181.672,182.492 181.338,183.158 180.5,183.5C 160.34,182.503 140.007,182.17 119.5,182.5 Z"/></g>
<g><path style="opacity:1" fill="#e6e6e6" d="M 303.5,197.5 C 304.613,198.946 304.78,200.613 304,202.5C 302.212,200.977 302.045,199.31 303.5,197.5 Z"/></g>
<g><path style="opacity:1" fill="#b1b1b1" d="M 8.5,199.5 C 9.83333,199.5 11.1667,199.5 12.5,199.5C 12.719,200.675 12.3857,201.675 11.5,202.5C 9.7869,202.121 8.7869,201.121 8.5,199.5 Z"/></g>
<g><path style="opacity:1" fill="#e6f5e2" d="M 113.5,182.5 C 129.873,197.045 148.54,200.545 169.5,193C 174.723,190.443 179.39,187.109 183.5,183C 184.167,182.333 184.833,182.333 185.5,183C 179.599,194.627 170.266,201.96 157.5,205C 146.336,207.204 136.336,205.037 127.5,198.5C 121.057,194.724 116.39,189.39 113.5,182.5 Z"/></g>
<g><path style="opacity:1" fill="#fcfafa" d="M 127.5,198.5 C 127.343,197.127 127.51,195.793 128,194.5C 130.507,196.155 133.341,196.989 136.5,197C 145.833,197.667 155.167,197.667 164.5,197C 166.45,195.504 168.45,195.337 170.5,196.5C 166.789,199.444 162.622,201.777 158,203.5C 156.5,203 155,202.5 153.5,202C 147.167,201.667 140.833,201.333 134.5,201C 132.559,199.097 130.226,198.264 127.5,198.5 Z"/></g>
<g><path style="opacity:1" fill="#f0f9ec" d="M 119.5,182.5 C 140.007,182.17 160.34,182.503 180.5,183.5C 177.243,186.294 173.577,188.294 169.5,189.5C 168.4,190.558 167.066,191.392 165.5,192C 147.986,197.773 132.32,194.773 118.5,183C 118.728,182.601 119.062,182.435 119.5,182.5 Z"/></g>
<g><path style="opacity:1" fill="#fcfbfc" d="M 169.5,189.5 C 163.547,190.704 157.547,191.704 151.5,192.5C 147.601,192.588 144.101,191.588 141,189.5C 138.534,189.434 136.034,189.434 133.5,189.5C 132.808,188.975 132.308,188.308 132,187.5C 126.116,189.609 124.783,188.276 128,183.5C 138.392,184.997 148.892,185.83 159.5,186C 162.188,186.392 164.855,186.892 167.5,187.5C 168.713,187.747 169.38,188.414 169.5,189.5 Z"/></g>
<g><path style="opacity:1" fill="#dcf2db" d="M 278.5,218.5 C 268.727,215.401 258.727,214.734 248.5,216.5C 248.881,215.069 249.881,214.236 251.5,214C 255.887,213.774 260.221,213.274 264.5,212.5C 268.692,213.957 273.025,214.957 277.5,215.5C 279.435,216.213 279.768,217.213 278.5,218.5 Z"/></g>
<g><path style="opacity:1" fill="#8eac82" d="M 120.5,216.5 C 132.322,215.505 144.322,215.172 156.5,215.5C 157.492,215.328 158.158,215.662 158.5,216.5C 158.768,218.099 158.434,219.432 157.5,220.5C 157.5,219.167 157.5,217.833 157.5,216.5C 145.167,216.5 132.833,216.5 120.5,216.5 Z"/></g>
<g><path style="opacity:1" fill="#e8f9e1" d="M 156.5,215.5 C 144.322,215.172 132.322,215.505 120.5,216.5C 120.5,224.5 120.5,232.5 120.5,240.5C 119.833,240.5 119.167,240.5 118.5,240.5C 118.183,231.915 118.517,223.415 119.5,215C 132.007,214.173 144.34,214.34 156.5,215.5 Z"/></g>
<g><path style="opacity:1" fill="#2e621f" d="M 278.5,218.5 C 278.833,218.5 279.167,218.5 279.5,218.5C 280.23,219.712 281.23,220.712 282.5,221.5C 279.384,222.398 276.218,223.064 273,223.5C 267.434,220.26 261.6,219.76 255.5,222C 252.875,225.832 252.875,229.665 255.5,233.5C 253.983,233.489 252.816,232.823 252,231.5C 251.421,227.797 251.588,224.131 252.5,220.5C 257.734,220.041 262.9,219.374 268,218.5C 269.884,220.576 272.051,220.91 274.5,219.5C 273.807,217.289 272.641,216.955 271,218.5C 268.373,217.677 265.706,217.01 263,216.5C 257.136,218.366 251.302,219.532 245.5,220C 245,220.5 244.5,221 244,221.5C 243.65,225.533 243.483,229.367 243.5,233C 246.05,234.442 248.716,235.608 251.5,236.5C 252.386,237.325 252.719,238.325 252.5,239.5C 249.763,238.969 247.096,238.136 244.5,237C 236.802,228.383 238.135,221.55 248.5,216.5C 258.727,214.734 268.727,215.401 278.5,218.5 Z"/></g>
<g><path style="opacity:1" fill="#2b5d1a" d="M 67.5,216.5 C 79.8333,216.5 92.1667,216.5 104.5,216.5C 104.5,217.833 104.5,219.167 104.5,220.5C 96.8333,220.5 89.1667,220.5 81.5,220.5C 82.9526,219.175 82.6192,218.342 80.5,218C 76.9085,217.211 73.4085,217.378 70,218.5C 69.0416,225.63 68.2083,232.63 67.5,239.5C 67.5,231.833 67.5,224.167 67.5,216.5 Z"/></g>
<g><path style="opacity:1" fill="#edfaea" d="M 102.5,224.5 C 95.5,224.5 88.5,224.5 81.5,224.5C 81.5,223.167 81.5,221.833 81.5,220.5C 89.1667,220.5 96.8333,220.5 104.5,220.5C 105.451,219.081 105.784,217.415 105.5,215.5C 92.6557,215.171 79.989,215.505 67.5,216.5C 67.5,224.167 67.5,231.833 67.5,239.5C 67.5,239.833 67.5,240.167 67.5,240.5C 66.8333,240.5 66.1667,240.5 65.5,240.5C 65.1892,230.608 64.5226,220.941 63.5,211.5C 68.0657,211.726 72.3991,212.726 76.5,214.5C 86.8291,213.238 97.1624,213.238 107.5,214.5C 107.977,215.478 108.643,216.311 109.5,217C 107.875,217.853 107.542,218.853 108.5,220C 106.253,221.277 104.253,222.777 102.5,224.5 Z"/></g>
<g><path style="opacity:1" fill="#8baf84" d="M 67.5,216.5 C 79.989,215.505 92.6557,215.171 105.5,215.5C 105.784,217.415 105.451,219.081 104.5,220.5C 104.5,219.167 104.5,217.833 104.5,216.5C 92.1667,216.5 79.8333,216.5 67.5,216.5 Z"/></g>
<g><path style="opacity:1" fill="#97bc8a" d="M 224.5,216.5 C 225.492,224.316 225.826,232.316 225.5,240.5C 221.833,240.5 218.167,240.5 214.5,240.5C 214.5,240.167 214.5,239.833 214.5,239.5C 217.833,239.5 221.167,239.5 224.5,239.5C 224.5,231.833 224.5,224.167 224.5,216.5 Z"/></g>
<g><path style="opacity:1" fill="#d1e9c6" d="M 158.5,216.5 C 159.451,217.919 159.784,219.585 159.5,221.5C 151.328,221.034 143.328,221.534 135.5,223C 142.167,223.333 148.833,223.667 155.5,224C 156.056,224.383 156.389,224.883 156.5,225.5C 149.167,225.5 141.833,225.5 134.5,225.5C 134.5,223.833 134.5,222.167 134.5,220.5C 142.167,220.5 149.833,220.5 157.5,220.5C 158.434,219.432 158.768,218.099 158.5,216.5 Z"/></g>
<g><path style="opacity:1" fill="#245b15" d="M 298.5,216.5 C 302.833,216.5 307.167,216.5 311.5,216.5C 312.132,224.573 311.465,232.24 309.5,239.5C 309.5,232.167 309.5,224.833 309.5,217.5C 306.579,217.146 304.246,218.146 302.5,220.5C 301.504,226.798 301.17,233.132 301.5,239.5C 300.5,239.5 299.5,239.5 298.5,239.5C 298.5,231.833 298.5,224.167 298.5,216.5 Z"/></g>
<g><path style="opacity:1" fill="#9abe8e" d="M 298.5,216.5 C 302.97,215.514 307.637,215.181 312.5,215.5C 312.5,223.833 312.5,232.167 312.5,240.5C 307.833,240.5 303.167,240.5 298.5,240.5C 298.5,240.167 298.5,239.833 298.5,239.5C 299.5,239.5 300.5,239.5 301.5,239.5C 304.167,239.5 306.833,239.5 309.5,239.5C 311.465,232.24 312.132,224.573 311.5,216.5C 307.167,216.5 302.833,216.5 298.5,216.5 Z"/></g>
<g><path style="opacity:1" fill="#8aae83" d="M 81.5,220.5 C 81.5,221.833 81.5,223.167 81.5,224.5C 88.5,224.5 95.5,224.5 102.5,224.5C 103.833,226.167 103.833,227.833 102.5,229.5C 102.5,228.167 102.5,226.833 102.5,225.5C 95.1667,225.5 87.8333,225.5 80.5,225.5C 80.2155,223.585 80.5489,221.919 81.5,220.5 Z"/></g>
<g><path style="opacity:1" fill="#266815" d="M 81.5,220.5 C 80.5489,221.919 80.2155,223.585 80.5,225.5C 87.8333,225.5 95.1667,225.5 102.5,225.5C 102.5,226.833 102.5,228.167 102.5,229.5C 95.1667,229.5 87.8333,229.5 80.5,229.5C 80.2606,231.467 80.5939,233.301 81.5,235C 89.4931,235.5 97.4931,235.666 105.5,235.5C 105.5,237.167 105.5,238.833 105.5,240.5C 92.8333,240.5 80.1667,240.5 67.5,240.5C 67.5,240.167 67.5,239.833 67.5,239.5C 68.2083,232.63 69.0416,225.63 70,218.5C 73.4085,217.378 76.9085,217.211 80.5,218C 82.6192,218.342 82.9526,219.175 81.5,220.5 Z"/></g>
<g><path style="opacity:1" fill="#276615" d="M 120.5,216.5 C 132.833,216.5 145.167,216.5 157.5,216.5C 157.5,217.833 157.5,219.167 157.5,220.5C 149.833,220.5 142.167,220.5 134.5,220.5C 134.5,222.167 134.5,223.833 134.5,225.5C 141.833,225.5 149.167,225.5 156.5,225.5C 156.5,226.833 156.5,228.167 156.5,229.5C 149.167,229.5 141.833,229.5 134.5,229.5C 134.5,231.167 134.5,232.833 134.5,234.5C 142.316,235.492 150.316,235.826 158.5,235.5C 158.5,236.833 158.5,238.167 158.5,239.5C 158.5,239.833 158.5,240.167 158.5,240.5C 145.833,240.5 133.167,240.5 120.5,240.5C 120.5,232.5 120.5,224.5 120.5,216.5 Z"/></g>
<g><path style="opacity:1" fill="#296518" d="M 54.5,240.5 C 50.1667,240.5 45.8333,240.5 41.5,240.5C 40.8333,239.167 40.1667,237.833 39.5,236.5C 36.6862,235.835 33.6862,235.502 30.5,235.5C 27.0866,235.517 24.0866,236.184 21.5,237.5C 20.8333,238.167 20.1667,238.833 19.5,239.5C 15.2984,239.817 11.2984,239.483 7.5,238.5C 12.4744,231.185 17.4744,223.851 22.5,216.5C 27.8023,215.337 33.1357,215.171 38.5,216C 44.7251,223.626 50.0585,231.792 54.5,240.5 Z"/></g>
<g><path style="opacity:1" fill="#d7f1d1" d="M 29.5,222.5 C 32.1627,224.089 34.1627,226.422 35.5,229.5C 32.5719,230.484 29.5719,230.817 26.5,230.5C 26.9402,227.62 27.9402,224.954 29.5,222.5 Z"/></g>
<g><path style="opacity:1" fill="#def1d8" d="M 279.5,218.5 C 282.484,218.787 283.817,220.454 283.5,223.5C 279.209,223.483 275.209,224.483 271.5,226.5C 271.5,227.5 271.5,228.5 271.5,229.5C 275.555,229.176 279.555,229.509 283.5,230.5C 285.438,234.157 284.438,236.157 280.5,236.5C 281.141,235.518 281.807,234.518 282.5,233.5C 281.975,232.808 281.308,232.308 280.5,232C 277.5,231.333 274.5,231.333 271.5,232C 266.389,235.975 261.056,236.475 255.5,233.5C 252.875,229.665 252.875,225.832 255.5,222C 261.6,219.76 267.434,220.26 273,223.5C 276.218,223.064 279.384,222.398 282.5,221.5C 281.23,220.712 280.23,219.712 279.5,218.5 Z"/></g>
<g><path style="opacity:1" fill="#fcfcfc" d="M 260.5,221.5 C 264.182,220.725 266.682,222.059 268,225.5C 268.914,224.346 269.747,224.513 270.5,226C 270.852,228.138 270.352,230.304 269,232.5C 268.667,232.167 268.333,231.833 268,231.5C 265.978,232.786 263.811,233.786 261.5,234.5C 260.278,232.022 258.278,231.022 255.5,231.5C 255.098,226.969 256.765,223.636 260.5,221.5 Z"/></g>
<g><path style="opacity:1" fill="#9cc190" d="M 134.5,234.5 C 142.833,234.5 151.167,234.5 159.5,234.5C 159.784,236.415 159.451,238.081 158.5,239.5C 158.5,238.167 158.5,236.833 158.5,235.5C 150.316,235.826 142.316,235.492 134.5,234.5 Z"/></g>
<g><path style="opacity:1" fill="#2a6719" d="M 224.5,216.5 C 224.5,224.167 224.5,231.833 224.5,239.5C 221.167,239.5 217.833,239.5 214.5,239.5C 213.673,234.015 213.173,228.348 213,222.5C 209.676,228.323 206.843,234.323 204.5,240.5C 201.167,240.5 197.833,240.5 194.5,240.5C 191.988,234.11 188.821,228.11 185,222.5C 184.501,228.491 184.334,234.491 184.5,240.5C 180.833,240.5 177.167,240.5 173.5,240.5C 173.5,232.167 173.5,223.833 173.5,215.5C 179.509,215.334 185.509,215.501 191.5,216C 193.804,220.783 196.47,225.283 199.5,229.5C 202.231,225.204 204.565,220.704 206.5,216C 212.681,215.181 218.681,215.347 224.5,216.5 Z"/></g>
<g><path style="opacity:1" fill="#edf8e7" d="M 194.5,240.5 C 191.167,240.5 187.833,240.5 184.5,240.5C 184.334,234.491 184.501,228.491 185,222.5C 188.821,228.11 191.988,234.11 194.5,240.5 Z"/></g>
<g><path style="opacity:1" fill="#90b684" d="M 39.5,236.5 C 33.4093,236.211 27.4093,236.545 21.5,237.5C 24.0866,236.184 27.0866,235.517 30.5,235.5C 33.6862,235.502 36.6862,235.835 39.5,236.5 Z"/></g>
<g><path style="opacity:1" fill="#1a6406" d="M 309.5,239.5 C 306.833,239.5 304.167,239.5 301.5,239.5C 301.17,233.132 301.504,226.798 302.5,220.5C 304.246,218.146 306.579,217.146 309.5,217.5C 309.5,224.833 309.5,232.167 309.5,239.5 Z"/></g>
<g><path style="opacity:1" fill="#256513" d="M 255.5,233.5 C 261.056,236.475 266.389,235.975 271.5,232C 274.5,231.333 277.5,231.333 280.5,232C 281.308,232.308 281.975,232.808 282.5,233.5C 281.807,234.518 281.141,235.518 280.5,236.5C 277.544,238.149 274.544,239.483 271.5,240.5C 265.5,240.5 259.5,240.5 253.5,240.5C 253.5,239.833 253.167,239.5 252.5,239.5C 252.719,238.325 252.386,237.325 251.5,236.5C 248.716,235.608 246.05,234.442 243.5,233C 243.483,229.367 243.65,225.533 244,221.5C 244.5,221 245,220.5 245.5,220C 251.302,219.532 257.136,218.366 263,216.5C 265.706,217.01 268.373,217.677 271,218.5C 272.641,216.955 273.807,217.289 274.5,219.5C 272.051,220.91 269.884,220.576 268,218.5C 262.9,219.374 257.734,220.041 252.5,220.5C 251.588,224.131 251.421,227.797 252,231.5C 252.816,232.823 253.983,233.489 255.5,233.5 Z"/></g>
<g><path style="opacity:1" fill="#f4fcf3" d="M 39.5,236.5 C 40.1667,237.833 40.8333,239.167 41.5,240.5C 34.1667,240.5 26.8333,240.5 19.5,240.5C 19.5,240.167 19.5,239.833 19.5,239.5C 20.1667,238.833 20.8333,238.167 21.5,237.5C 27.4093,236.545 33.4093,236.211 39.5,236.5 Z"/></g>
<g><path style="opacity:1" fill="#7cb469" d="M 7.5,238.5 C 11.2984,239.483 15.2984,239.817 19.5,239.5C 19.5,239.833 19.5,240.167 19.5,240.5C 15.1667,240.5 10.8333,240.5 6.5,240.5C 6.32842,239.508 6.66175,238.842 7.5,238.5 Z"/></g>
<g><path style="opacity:1" fill="#eff8ec" d="M 214.5,239.5 C 214.5,239.833 214.5,240.167 214.5,240.5C 211.167,240.5 207.833,240.5 204.5,240.5C 206.843,234.323 209.676,228.323 213,222.5C 213.173,228.348 213.673,234.015 214.5,239.5 Z"/></g>
</svg>
